<?xml version="1.0" encoding="utf-8"?>
<svg version="1.0" xmlns="http://www.w3.org/2000/svg" width="158.000000pt" height="330.000000pt" viewBox="0 0 158.000000 330.000000" preserveAspectRatio="xMidYMid meet" xmlns:bx="https://boxy-svg.com"><defs><bx:export><bx:file format="svg" units="pt"/></bx:export></defs><g transform="translate(0.000000,330.000000) scale(0.100000,-0.100000)" fill="#000000" stroke="none"><path d="M715 3264 c-26 -16 -56 -24 -86 -24 -103 0 -217 -63 -248 -138 -7 -15 -35 -44 -64 -65 -29 -20 -71 -56 -95 -78 -35 -34 -43 -47 -40 -72 3 -29 8 -33 78 -57 97 -33 255 -129 238 -145 -11 -12 -209 -75 -338 -109 -69 -17 -131 -35 -138 -40 -27 -17 -13 -61 33 -99 76 -64 125 -194 164 -432 88 -530 129 -1048 132 -1625 1 -135 4 -256 8 -270 9 -32 58 -41 78 -14 18 25 17 746 -2 1039 -28 429 -87 889 -139 1087 -13 47 -60 184 -80 230 -6 13 4 20 50 38 47 17 259 80 271 80 16 0 -7 -23 -57 -55 -69 -45 -80 -69 -57 -123 9 -20 18 -46 21 -57 12 -46 49 -522 66 -840 6 -110 15 -279 20 -375 6 -96 15 -322 20 -502 6 -180 13 -334 16 -342 13 -35 60 -28 75 11 24 63 -29 1572 -71 2033 -11 120 -16 112 91 170 31 16 69 46 83 65 33 43 59 44 88 4 13 -17 58 -51 100 -76 43 -25 80 -48 82 -51 2 -4 -2 -90 -9 -192 -48 -659 -90 -1914 -65 -1960 9 -16 19 -20 43 -18 30 3 32 6 39 53 3 28 7 122 7 210 2 294 48 1169 81 1550 22 252 26 275 48 321 23 49 10 75 -58 119 -50 32 -73 55 -57 55 12 0 224 -63 271 -80 46 -18 56 -25 50 -38 -41 -99 -89 -259 -109 -368 -27 -145 -70 -453 -80 -574 -3 -41 -10 -115 -15 -165 -30 -291 -45 -1199 -20 -1245 11 -20 64 -29 74 -11 3 4 8 127 11 272 13 670 53 1150 136 1638 44 261 89 378 169 442 30 24 40 40 40 61 0 34 -2 35 -164 78 -129 35 -314 94 -324 105 -16 16 136 109 236 144 72 25 77 29 80 58 3 33 -26 66 -133 150 -27 22 -59 55 -69 74 -41 75 -141 128 -241 129 -34 0 -64 8 -94 25 -53 31 -94 30 -146 -1z m128 -24 c39 -22 67 -30 103 -30 100 0 169 -35 221 -113 18 -26 67 -76 110 -111 122 -99 123 -101 28 -130 -80 -24 -167 -73 -240 -136 -33 -29 -79 -61 -103 -72 -24 -11 -41 -25 -39 -31 4 -14 91 -83 165 -132 57 -38 59 -43 38 -83 -15 -28 -28 -127 -46 -342 -6 -69 -13 -147 -15 -175 -8 -83 -24 -387 -35 -625 -5 -124 -12 -261 -16 -305 -3 -44 -9 -212 -13 -372 -4 -161 -10 -296 -14 -299 -3 -3 -11 -3 -18 2 -14 8 -7 635 11 969 6 105 17 336 25 515 18 386 32 582 47 629 10 32 9 36 -18 58 -16 12 -55 37 -87 53 -31 17 -71 48 -88 69 -26 33 -36 38 -69 38 -33 0 -43 -5 -69 -38 -17 -21 -57 -52 -88 -69 -32 -16 -71 -40 -86 -53 -25 -20 -27 -25 -18 -52 5 -16 15 -102 21 -190 10 -156 13 -201 25 -395 28 -476 52 -1525 35 -1535 -21 -13 -25 6 -27 128 -7 317 -37 1048 -47 1147 -3 25 -8 95 -11 155 -19 353 -50 646 -71 687 -20 39 -18 45 29 75 63 41 177 133 177 143 0 6 -19 19 -43 30 -24 11 -70 43 -103 71 -74 63 -144 103 -231 134 -38 13 -69 30 -71 38 -2 9 34 46 90 91 56 45 100 89 110 109 33 68 121 116 218 117 42 0 67 7 105 30 28 16 51 29 53 29 1 1 26 -12 55 -29z m-265 -598 c31 -24 17 -34 -66 -51 -119 -23 -342 -99 -342 -116 0 -3 7 -20 16 -37 100 -193 178 -659 225 -1343 16 -230 16 -972 0 -988 -9 -9 -14 -9 -20 1 -4 8 -11 183 -15 390 -7 391 -8 408 -26 657 -32 433 -103 935 -156 1100 -34 106 -66 161 -122 212 -34 30 -43 43 -32 46 8 3 76 21 150 42 74 20 178 51 230 69 113 39 128 41 158 18z m604 -26 c73 -24 180 -56 238 -71 58 -15 111 -29 119 -31 10 -3 -2 -20 -36 -52 -28 -26 -60 -65 -71 -88 -57 -112 -97 -300 -146 -684 -57 -446 -75 -697 -83 -1182 -3 -213 -10 -393 -14 -400 -25 -40 -30 21 -30 403 0 380 11 676 31 844 5 44 12 116 15 160 12 144 60 480 91 630 15 76 53 188 90 274 13 29 24 55 24 58 0 16 -227 91 -351 117 -39 8 -74 18 -77 21 -9 8 36 45 54 45 7 0 73 -20 146 -44z" style="fill: rgb(255, 255, 255);"/><path d="M555 3133 c-51 -13 -110 -78 -85 -93 16 -10 74 4 105 24 23 15 51 54 43 61 -8 7 -45 12 -63 8z" style="fill: rgb(255, 255, 255);"/><path d="M967 3124 c-19 -20 55 -80 103 -84 62 -5 65 7 16 56 -27 27 -42 34 -73 34 -22 0 -43 -3 -46 -6z" style="fill: rgb(255, 255, 255);"/></g></svg>
